<svg width="170" height="92" fill="none" xmlns="http://www.w3.org/2000/svg"><rect x=".5" y=".5" width="169" height="91" rx="3.5" stroke="#AFB1B8"/><path fill-rule="evenodd" clip-rule="evenodd" d="M82.114 23.648h-.137c-.21-.013-.42-.018-.63-.023h-.455c-.397 0-.802.01-1.204.03a.628.628 0 0 0-.091 0 28.274 28.274 0 0 0-10.516 2.683l-.433.209v22.14l1.012-.343c.888-.305 1.834-.58 2.813-.834a34.334 34.334 0 0 1 8.095-1.075v2.909a24.28 24.28 0 0 0-1.065.03h-.084a32.36 32.36 0 0 0-6.228.956 31.635 31.635 0 0 0-7.42 2.892V24.825a29.728 29.728 0 0 1 7.785-3.166 29.793 29.793 0 0 1 7.336-.946h.427c.511.013 1.01.036 1.478.071 1.233.087 2.456.282 3.655.583v2.863a22.614 22.614 0 0 0-3.541-.534l-.073-.006a8.725 8.725 0 0 0-.724-.042Zm5.039 2.927c.635.048 1.292.07 1.958.07a31.463 31.463 0 0 0 7.713-.988 31.767 31.767 0 0 0 7.417-2.894v27.89a29.809 29.809 0 0 1-7.786 3.166 29.943 29.943 0 0 1-7.337.944 22.405 22.405 0 0 1-5.565-.656V26.035c.43.1.873.191 1.323.267.739.125 1.518.217 2.277.273Zm14.194.216-1.012.34c-.93.313-1.87.593-2.813.842a34.263 34.263 0 0 1-8.406 1.078c-.66 0-1.267-.017-1.854-.056l-.807-.053V51.719l.693.06c.642.057 1.305.085 1.973.085a26.888 26.888 0 0 0 6.62-.857 27.746 27.746 0 0 0 5.173-1.86l.433-.208V26.791Z" fill="#AFB1B8"/><path d="M67.737 62.925a1.492 1.492 0 0 0-1.126-.455 1.676 1.676 0 0 0-.65.122 1.464 1.464 0 0 0-.832.842c-.08.2-.119.413-.116.628v3.794a1.79 1.79 0 0 0 .149.778c.09.195.219.368.38.509.151.128.329.22.52.27.185.051.376.078.567.078.211.002.42-.043.612-.132a1.601 1.601 0 0 0 .96-1.465v-.424h-.993v.338a.88.88 0 0 1-.058.338.607.607 0 0 1-.144.214.697.697 0 0 1-.415.145.504.504 0 0 1-.465-.204.898.898 0 0 1-.132-.508v-3.538c-.006-.196.036-.39.122-.567a.507.507 0 0 1 .485-.229.527.527 0 0 1 .443.214.806.806 0 0 1 .164.509v.328h.982v-.387a1.79 1.79 0 0 0-.121-.664 1.563 1.563 0 0 0-.332-.534ZM73.629 62.882a1.765 1.765 0 0 0-1.128-.417c-.202.001-.403.037-.592.107a1.56 1.56 0 0 0-.908.842c-.1.231-.15.482-.145.735v3.638c-.006.256.043.51.145.746.09.195.22.369.384.508.152.14.33.25.524.32a1.711 1.711 0 0 0 1.72-.32c.158-.142.285-.315.374-.508.102-.235.151-.49.144-.746V64.15a1.77 1.77 0 0 0-.144-.735 1.641 1.641 0 0 0-.374-.532Zm-.463 4.905a.656.656 0 0 1-.197.527.726.726 0 0 1-.934 0 .65.65 0 0 1-.197-.526v-3.64a.653.653 0 0 1 .197-.526.726.726 0 0 1 .934 0 .653.653 0 0 1 .197.527v3.638ZM81.367 69.412v-6.888h-.953L79.16 66.17h-.017l-1.263-3.646h-.943v6.888h.984v-4.19h.017l.964 2.962h.491l.971-2.962h.018v4.19h.984ZM86.958 63.007c-.151-.17-.343-.3-.556-.377a2.184 2.184 0 0 0-.714-.106h-1.462v6.888h.981v-2.69h.506c.307.014.611-.05.886-.188a1.43 1.43 0 0 0 .539-.527c.113-.183.19-.387.225-.6.038-.259.056-.52.053-.783.01-.33-.023-.661-.096-.984a1.467 1.467 0 0 0-.362-.633Zm-.506 2.1a.866.866 0 0 1-.091.359.553.553 0 0 1-.253.241 1.007 1.007 0 0 1-.463.087h-.448v-2.342h.506a.941.941 0 0 1 .443.086.555.555 0 0 1 .23.255c.054.12.083.251.086.384v.457c0 .16.01.326 0 .473h-.01ZM91.608 62.524h-.805l-1.518 6.888h.982l.288-1.48h1.338l.289 1.48h.981l-1.555-6.888Zm-.906 4.47.483-2.497h.018l.48 2.497h-.981ZM97.95 66.674h-.018l-1.482-4.15h-.944v6.888h.981V65.27h.02l1.5 4.142h.924v-6.888h-.981v4.15ZM103.948 62.524l-.79 2.739h-.02l-.789-2.74h-1.04l1.348 3.978v2.911h.982v-2.911l1.348-3.977h-1.039ZM65 71.358h.473v1.327h.321v-1.327h.47v-.272H65v.272ZM68.977 71.086l-.62 1.6h.341l.132-.365h.638l.136.364h.35l-.636-1.6h-.341Zm-.05.966.217-.593.217.593h-.435ZM72.908 72.095h.37v.206a.612.612 0 0 1-.38.135.402.402 0 0 1-.34-.153.669.669 0 0 1-.118-.417c0-.356.154-.534.46-.534a.338.338 0 0 1 .362.255l.316-.061c-.068-.313-.293-.47-.678-.47a.804.804 0 0 0-.559.205.78.78 0 0 0-.23.616.872.872 0 0 0 .205.6.776.776 0 0 0 .607.234.961.961 0 0 0 .678-.255v-.63h-.693v.27ZM76.923 71.086h-.324v1.6h1.12v-.273h-.796v-1.327ZM80.317 71.086h-.323v1.6h.323v-1.6ZM83.636 72.154l-.655-1.068h-.313v1.6h.3V71.64l.643 1.045h.322v-1.6h-.297v1.069ZM86.637 71.98h.797v-.271h-.797v-.351h.857v-.272h-1.181v1.6h1.214v-.273h-.89v-.432ZM93.912 71.716h-.63v-.63h-.32v1.6h.32v-.7h.63v.7h.322v-1.6h-.322v.63ZM96.93 71.98h.8v-.271h-.8v-.351h.86v-.272H96.61v1.6h1.212v-.273h-.89v-.432ZM101.023 71.98c.279-.043.42-.19.42-.444a.38.38 0 0 0-.157-.356.904.904 0 0 0-.468-.094h-.678v1.6h.322v-.67h.063a.433.433 0 0 1 .2.036c.047.029.086.07.114.117l.349.508h.384l-.195-.312a1.11 1.11 0 0 0-.354-.384Zm-.324-.22h-.237v-.402h.253a.838.838 0 0 1 .326.038.21.21 0 0 1 .046.256.213.213 0 0 1-.061.07.915.915 0 0 1-.327.038ZM104.11 71.98h.796v-.271h-.796v-.351h.86v-.272h-1.184v1.6H105v-.273h-.89v-.432Z" fill="#AFB1B8"/></svg>